<mxfile host="app.diagrams.net" modified="2023-03-29T22:32:16.325Z" agent="Mozilla/5.0 (Windows NT 10.0; Win64; x64) AppleWebKit/537.36 (KHTML, like Gecko) Chrome/111.0.0.0 Safari/537.36" etag="4WSOoRFEWi3j9RmFvCul" version="21.1.2" type="github">
  <diagram name="Page-1" id="kpE2Phg5UG2O1yojQXth">
    <mxGraphModel dx="1988" dy="1352" grid="0" gridSize="10" guides="1" tooltips="1" connect="1" arrows="1" fold="1" page="0" pageScale="1" pageWidth="850" pageHeight="1100" math="0" shadow="0">
      <root>
        <mxCell id="0" />
        <mxCell id="1" parent="0" />
        <mxCell id="WbsWjwDJcjXZ_kDhLRrN-7" style="edgeStyle=none;curved=1;rounded=0;orthogonalLoop=1;jettySize=auto;html=1;fontSize=12;endArrow=none;endFill=0;strokeWidth=2;" parent="1" source="WbsWjwDJcjXZ_kDhLRrN-2" target="WbsWjwDJcjXZ_kDhLRrN-4" edge="1">
          <mxGeometry relative="1" as="geometry" />
        </mxCell>
        <mxCell id="WbsWjwDJcjXZ_kDhLRrN-8" style="edgeStyle=none;curved=1;rounded=0;orthogonalLoop=1;jettySize=auto;html=1;fontSize=12;startSize=8;endSize=8;strokeWidth=2;endArrow=none;endFill=0;" parent="1" source="WbsWjwDJcjXZ_kDhLRrN-2" target="WbsWjwDJcjXZ_kDhLRrN-3" edge="1">
          <mxGeometry relative="1" as="geometry" />
        </mxCell>
        <mxCell id="WbsWjwDJcjXZ_kDhLRrN-9" style="edgeStyle=none;curved=1;rounded=0;orthogonalLoop=1;jettySize=auto;html=1;fontSize=12;startSize=8;endSize=8;endArrow=none;endFill=0;strokeWidth=2;" parent="1" source="WbsWjwDJcjXZ_kDhLRrN-2" target="WbsWjwDJcjXZ_kDhLRrN-6" edge="1">
          <mxGeometry relative="1" as="geometry" />
        </mxCell>
        <mxCell id="WbsWjwDJcjXZ_kDhLRrN-12" style="edgeStyle=none;curved=1;rounded=0;orthogonalLoop=1;jettySize=auto;html=1;fontSize=12;startSize=8;endSize=8;strokeWidth=2;endArrow=none;endFill=0;" parent="1" source="WbsWjwDJcjXZ_kDhLRrN-2" target="WbsWjwDJcjXZ_kDhLRrN-5" edge="1">
          <mxGeometry relative="1" as="geometry" />
        </mxCell>
        <mxCell id="WbsWjwDJcjXZ_kDhLRrN-54" style="edgeStyle=none;curved=1;rounded=0;orthogonalLoop=1;jettySize=auto;html=1;entryX=0;entryY=0.5;entryDx=0;entryDy=0;fontSize=12;startSize=8;endSize=8;endArrow=none;endFill=0;strokeWidth=2;" parent="1" source="WbsWjwDJcjXZ_kDhLRrN-2" target="WbsWjwDJcjXZ_kDhLRrN-24" edge="1">
          <mxGeometry relative="1" as="geometry" />
        </mxCell>
        <mxCell id="WbsWjwDJcjXZ_kDhLRrN-2" value="Pembeli" style="rounded=0;whiteSpace=wrap;html=1;fontSize=16;" parent="1" vertex="1">
          <mxGeometry x="46" y="259" width="120" height="60" as="geometry" />
        </mxCell>
        <mxCell id="WbsWjwDJcjXZ_kDhLRrN-3" value="&lt;font style=&quot;font-size: 13px;&quot;&gt;Nama_pembeli&lt;/font&gt;" style="ellipse;whiteSpace=wrap;html=1;fontSize=16;" parent="1" vertex="1">
          <mxGeometry x="-18" y="80" width="114" height="57" as="geometry" />
        </mxCell>
        <mxCell id="WbsWjwDJcjXZ_kDhLRrN-4" value="&lt;font style=&quot;font-size: 13px;&quot;&gt;&lt;u&gt;id_pembeli&lt;/u&gt;&lt;/font&gt;" style="ellipse;whiteSpace=wrap;html=1;fontSize=16;" parent="1" vertex="1">
          <mxGeometry x="-85" y="177" width="114" height="57" as="geometry" />
        </mxCell>
        <mxCell id="WbsWjwDJcjXZ_kDhLRrN-5" value="&lt;font style=&quot;font-size: 13px;&quot;&gt;Nomor telepon&lt;/font&gt;" style="ellipse;whiteSpace=wrap;html=1;fontSize=16;" parent="1" vertex="1">
          <mxGeometry x="193" y="177" width="114" height="57" as="geometry" />
        </mxCell>
        <mxCell id="WbsWjwDJcjXZ_kDhLRrN-6" value="&lt;font style=&quot;font-size: 13px;&quot;&gt;email&lt;/font&gt;" style="ellipse;whiteSpace=wrap;html=1;fontSize=16;" parent="1" vertex="1">
          <mxGeometry x="123.5" y="80" width="114" height="57" as="geometry" />
        </mxCell>
        <mxCell id="WbsWjwDJcjXZ_kDhLRrN-15" style="edgeStyle=none;curved=1;rounded=0;orthogonalLoop=1;jettySize=auto;html=1;fontSize=12;endArrow=none;endFill=0;strokeWidth=2;" parent="1" source="WbsWjwDJcjXZ_kDhLRrN-19" target="WbsWjwDJcjXZ_kDhLRrN-21" edge="1">
          <mxGeometry relative="1" as="geometry" />
        </mxCell>
        <mxCell id="WbsWjwDJcjXZ_kDhLRrN-16" style="edgeStyle=none;curved=1;rounded=0;orthogonalLoop=1;jettySize=auto;html=1;fontSize=12;startSize=8;endSize=8;strokeWidth=2;endArrow=none;endFill=0;" parent="1" source="WbsWjwDJcjXZ_kDhLRrN-19" target="WbsWjwDJcjXZ_kDhLRrN-20" edge="1">
          <mxGeometry relative="1" as="geometry" />
        </mxCell>
        <mxCell id="WbsWjwDJcjXZ_kDhLRrN-17" style="edgeStyle=none;curved=1;rounded=0;orthogonalLoop=1;jettySize=auto;html=1;fontSize=12;startSize=8;endSize=8;endArrow=none;endFill=0;strokeWidth=2;" parent="1" source="WbsWjwDJcjXZ_kDhLRrN-19" target="WbsWjwDJcjXZ_kDhLRrN-23" edge="1">
          <mxGeometry relative="1" as="geometry" />
        </mxCell>
        <mxCell id="WbsWjwDJcjXZ_kDhLRrN-18" style="edgeStyle=none;curved=1;rounded=0;orthogonalLoop=1;jettySize=auto;html=1;fontSize=12;startSize=8;endSize=8;strokeWidth=2;endArrow=none;endFill=0;" parent="1" source="WbsWjwDJcjXZ_kDhLRrN-19" target="WbsWjwDJcjXZ_kDhLRrN-22" edge="1">
          <mxGeometry relative="1" as="geometry" />
        </mxCell>
        <mxCell id="WbsWjwDJcjXZ_kDhLRrN-52" style="edgeStyle=none;curved=1;rounded=0;orthogonalLoop=1;jettySize=auto;html=1;fontSize=12;startSize=8;endSize=8;endArrow=none;endFill=0;strokeWidth=2;" parent="1" source="WbsWjwDJcjXZ_kDhLRrN-19" target="WbsWjwDJcjXZ_kDhLRrN-48" edge="1">
          <mxGeometry relative="1" as="geometry" />
        </mxCell>
        <mxCell id="WbsWjwDJcjXZ_kDhLRrN-69" style="edgeStyle=none;curved=1;rounded=0;orthogonalLoop=1;jettySize=auto;html=1;entryX=0.5;entryY=0;entryDx=0;entryDy=0;fontSize=12;startSize=8;endSize=8;strokeWidth=2;endArrow=none;endFill=0;" parent="1" source="WbsWjwDJcjXZ_kDhLRrN-19" target="WbsWjwDJcjXZ_kDhLRrN-57" edge="1">
          <mxGeometry relative="1" as="geometry" />
        </mxCell>
        <mxCell id="WbsWjwDJcjXZ_kDhLRrN-19" value="Makanan" style="rounded=0;whiteSpace=wrap;html=1;fontSize=16;" parent="1" vertex="1">
          <mxGeometry x="847" y="259" width="120" height="60" as="geometry" />
        </mxCell>
        <mxCell id="WbsWjwDJcjXZ_kDhLRrN-20" value="&lt;font style=&quot;font-size: 13px;&quot;&gt;Nama_makanan&lt;/font&gt;" style="ellipse;whiteSpace=wrap;html=1;fontSize=16;" parent="1" vertex="1">
          <mxGeometry x="783" y="80" width="114" height="57" as="geometry" />
        </mxCell>
        <mxCell id="WbsWjwDJcjXZ_kDhLRrN-21" value="&lt;font style=&quot;font-size: 13px;&quot;&gt;&lt;u&gt;id_makanan&lt;/u&gt;&lt;/font&gt;" style="ellipse;whiteSpace=wrap;html=1;fontSize=16;" parent="1" vertex="1">
          <mxGeometry x="716" y="177" width="114" height="57" as="geometry" />
        </mxCell>
        <mxCell id="WbsWjwDJcjXZ_kDhLRrN-22" value="&lt;font style=&quot;font-size: 11px;&quot;&gt;Status &lt;br&gt;(tersedia/habis)&lt;/font&gt;" style="ellipse;whiteSpace=wrap;html=1;fontSize=16;" parent="1" vertex="1">
          <mxGeometry x="994" y="162" width="114" height="57" as="geometry" />
        </mxCell>
        <mxCell id="WbsWjwDJcjXZ_kDhLRrN-23" value="&lt;font style=&quot;font-size: 13px;&quot;&gt;keterangan makanan&lt;/font&gt;" style="ellipse;whiteSpace=wrap;html=1;fontSize=16;" parent="1" vertex="1">
          <mxGeometry x="929" y="84" width="114" height="57" as="geometry" />
        </mxCell>
        <mxCell id="WbsWjwDJcjXZ_kDhLRrN-42" style="edgeStyle=none;curved=1;rounded=0;orthogonalLoop=1;jettySize=auto;html=1;fontSize=12;startSize=8;endSize=8;strokeWidth=2;endArrow=none;endFill=0;" parent="1" source="WbsWjwDJcjXZ_kDhLRrN-24" target="WbsWjwDJcjXZ_kDhLRrN-25" edge="1">
          <mxGeometry relative="1" as="geometry" />
        </mxCell>
        <mxCell id="WbsWjwDJcjXZ_kDhLRrN-43" style="edgeStyle=none;curved=1;rounded=0;orthogonalLoop=1;jettySize=auto;html=1;fontSize=12;startSize=8;endSize=8;strokeWidth=2;endArrow=none;endFill=0;" parent="1" source="WbsWjwDJcjXZ_kDhLRrN-24" target="WbsWjwDJcjXZ_kDhLRrN-27" edge="1">
          <mxGeometry relative="1" as="geometry" />
        </mxCell>
        <mxCell id="WbsWjwDJcjXZ_kDhLRrN-44" style="edgeStyle=none;curved=1;rounded=0;orthogonalLoop=1;jettySize=auto;html=1;fontSize=12;startSize=8;endSize=8;strokeWidth=2;endArrow=none;endFill=0;" parent="1" source="WbsWjwDJcjXZ_kDhLRrN-24" target="WbsWjwDJcjXZ_kDhLRrN-26" edge="1">
          <mxGeometry relative="1" as="geometry" />
        </mxCell>
        <mxCell id="WbsWjwDJcjXZ_kDhLRrN-55" style="edgeStyle=none;curved=1;rounded=0;orthogonalLoop=1;jettySize=auto;html=1;fontSize=12;startSize=8;endSize=8;endArrow=none;endFill=0;strokeWidth=2;" parent="1" source="WbsWjwDJcjXZ_kDhLRrN-24" target="WbsWjwDJcjXZ_kDhLRrN-19" edge="1">
          <mxGeometry relative="1" as="geometry" />
        </mxCell>
        <mxCell id="WbsWjwDJcjXZ_kDhLRrN-24" value="memesan" style="rhombus;whiteSpace=wrap;html=1;fontSize=16;" parent="1" vertex="1">
          <mxGeometry x="430" y="251" width="153" height="80" as="geometry" />
        </mxCell>
        <mxCell id="WbsWjwDJcjXZ_kDhLRrN-25" value="&lt;font style=&quot;font-size: 13px;&quot;&gt;&lt;u&gt;id_pemesanan&lt;/u&gt;&lt;/font&gt;" style="ellipse;whiteSpace=wrap;html=1;fontSize=16;" parent="1" vertex="1">
          <mxGeometry x="368" y="164" width="114" height="57" as="geometry" />
        </mxCell>
        <mxCell id="WbsWjwDJcjXZ_kDhLRrN-26" value="&lt;font style=&quot;font-size: 13px;&quot;&gt;&lt;u&gt;tanggal pemesanan&lt;/u&gt;&lt;/font&gt;" style="ellipse;whiteSpace=wrap;html=1;fontSize=16;" parent="1" vertex="1">
          <mxGeometry x="531" y="164" width="114" height="57" as="geometry" />
        </mxCell>
        <mxCell id="WbsWjwDJcjXZ_kDhLRrN-27" value="&lt;font style=&quot;font-size: 13px;&quot;&gt;&lt;u&gt;metode pembayaran&lt;/u&gt;&lt;/font&gt;" style="ellipse;whiteSpace=wrap;html=1;fontSize=16;" parent="1" vertex="1">
          <mxGeometry x="449.5" y="90" width="114" height="57" as="geometry" />
        </mxCell>
        <mxCell id="WbsWjwDJcjXZ_kDhLRrN-29" style="edgeStyle=none;curved=1;rounded=0;orthogonalLoop=1;jettySize=auto;html=1;fontSize=12;endArrow=none;endFill=0;strokeWidth=2;" parent="1" source="WbsWjwDJcjXZ_kDhLRrN-33" target="WbsWjwDJcjXZ_kDhLRrN-35" edge="1">
          <mxGeometry relative="1" as="geometry" />
        </mxCell>
        <mxCell id="WbsWjwDJcjXZ_kDhLRrN-30" style="edgeStyle=none;curved=1;rounded=0;orthogonalLoop=1;jettySize=auto;html=1;fontSize=12;startSize=8;endSize=8;strokeWidth=2;endArrow=none;endFill=0;" parent="1" source="WbsWjwDJcjXZ_kDhLRrN-33" target="WbsWjwDJcjXZ_kDhLRrN-34" edge="1">
          <mxGeometry relative="1" as="geometry" />
        </mxCell>
        <mxCell id="WbsWjwDJcjXZ_kDhLRrN-31" style="edgeStyle=none;curved=1;rounded=0;orthogonalLoop=1;jettySize=auto;html=1;fontSize=12;startSize=8;endSize=8;endArrow=none;endFill=0;strokeWidth=2;" parent="1" source="WbsWjwDJcjXZ_kDhLRrN-33" target="WbsWjwDJcjXZ_kDhLRrN-37" edge="1">
          <mxGeometry relative="1" as="geometry" />
        </mxCell>
        <mxCell id="WbsWjwDJcjXZ_kDhLRrN-32" style="edgeStyle=none;curved=1;rounded=0;orthogonalLoop=1;jettySize=auto;html=1;fontSize=12;startSize=8;endSize=8;strokeWidth=2;endArrow=none;endFill=0;" parent="1" source="WbsWjwDJcjXZ_kDhLRrN-33" target="WbsWjwDJcjXZ_kDhLRrN-36" edge="1">
          <mxGeometry relative="1" as="geometry" />
        </mxCell>
        <mxCell id="WbsWjwDJcjXZ_kDhLRrN-33" value="Resto" style="rounded=0;whiteSpace=wrap;html=1;fontSize=16;" parent="1" vertex="1">
          <mxGeometry x="1505.85" y="259" width="120" height="60" as="geometry" />
        </mxCell>
        <mxCell id="WbsWjwDJcjXZ_kDhLRrN-34" value="&lt;font style=&quot;font-size: 13px;&quot;&gt;Nama_Restoran&lt;/font&gt;" style="ellipse;whiteSpace=wrap;html=1;fontSize=16;" parent="1" vertex="1">
          <mxGeometry x="1444" y="90" width="114" height="57" as="geometry" />
        </mxCell>
        <mxCell id="WbsWjwDJcjXZ_kDhLRrN-35" value="&lt;font style=&quot;font-size: 13px;&quot;&gt;&lt;u&gt;id_Restoran&lt;/u&gt;&lt;/font&gt;" style="ellipse;whiteSpace=wrap;html=1;fontSize=16;" parent="1" vertex="1">
          <mxGeometry x="1374.85" y="177" width="114" height="57" as="geometry" />
        </mxCell>
        <mxCell id="WbsWjwDJcjXZ_kDhLRrN-36" value="&lt;font style=&quot;font-size: 13px;&quot;&gt;No_telepon&lt;/font&gt;" style="ellipse;whiteSpace=wrap;html=1;fontSize=16;" parent="1" vertex="1">
          <mxGeometry x="1654" y="177" width="114" height="57" as="geometry" />
        </mxCell>
        <mxCell id="WbsWjwDJcjXZ_kDhLRrN-37" value="&lt;font style=&quot;font-size: 13px;&quot;&gt;Alamat Restoran&lt;/font&gt;" style="ellipse;whiteSpace=wrap;html=1;fontSize=16;" parent="1" vertex="1">
          <mxGeometry x="1587" y="90" width="114" height="57" as="geometry" />
        </mxCell>
        <mxCell id="WbsWjwDJcjXZ_kDhLRrN-53" style="edgeStyle=none;curved=1;rounded=0;orthogonalLoop=1;jettySize=auto;html=1;fontSize=12;startSize=8;endSize=8;endArrow=none;endFill=0;strokeWidth=2;" parent="1" target="WbsWjwDJcjXZ_kDhLRrN-33" edge="1">
          <mxGeometry relative="1" as="geometry">
            <mxPoint x="1301.0001851448487" y="290.5556523633195" as="sourcePoint" />
          </mxGeometry>
        </mxCell>
        <mxCell id="WbsWjwDJcjXZ_kDhLRrN-48" value="Menjual" style="rhombus;whiteSpace=wrap;html=1;fontSize=16;" parent="1" vertex="1">
          <mxGeometry x="1165" y="251" width="153" height="80" as="geometry" />
        </mxCell>
        <mxCell id="WbsWjwDJcjXZ_kDhLRrN-63" style="edgeStyle=none;curved=1;rounded=0;orthogonalLoop=1;jettySize=auto;html=1;fontSize=12;startSize=8;endSize=8;strokeWidth=2;endArrow=none;endFill=0;" parent="1" source="WbsWjwDJcjXZ_kDhLRrN-56" target="WbsWjwDJcjXZ_kDhLRrN-58" edge="1">
          <mxGeometry relative="1" as="geometry" />
        </mxCell>
        <mxCell id="WbsWjwDJcjXZ_kDhLRrN-64" style="edgeStyle=none;curved=1;rounded=0;orthogonalLoop=1;jettySize=auto;html=1;fontSize=12;startSize=8;endSize=8;strokeWidth=2;endArrow=none;endFill=0;" parent="1" source="WbsWjwDJcjXZ_kDhLRrN-56" target="WbsWjwDJcjXZ_kDhLRrN-59" edge="1">
          <mxGeometry relative="1" as="geometry" />
        </mxCell>
        <mxCell id="WbsWjwDJcjXZ_kDhLRrN-65" style="edgeStyle=none;curved=1;rounded=0;orthogonalLoop=1;jettySize=auto;html=1;entryX=0.5;entryY=0;entryDx=0;entryDy=0;fontSize=12;startSize=8;endSize=8;strokeWidth=2;endArrow=none;endFill=0;" parent="1" source="WbsWjwDJcjXZ_kDhLRrN-56" target="WbsWjwDJcjXZ_kDhLRrN-60" edge="1">
          <mxGeometry relative="1" as="geometry" />
        </mxCell>
        <mxCell id="WbsWjwDJcjXZ_kDhLRrN-66" style="edgeStyle=none;curved=1;rounded=0;orthogonalLoop=1;jettySize=auto;html=1;entryX=0;entryY=0;entryDx=0;entryDy=0;fontSize=12;startSize=8;endSize=8;strokeWidth=2;endArrow=none;endFill=0;" parent="1" source="WbsWjwDJcjXZ_kDhLRrN-56" target="WbsWjwDJcjXZ_kDhLRrN-61" edge="1">
          <mxGeometry relative="1" as="geometry" />
        </mxCell>
        <mxCell id="WbsWjwDJcjXZ_kDhLRrN-67" style="edgeStyle=none;curved=1;rounded=0;orthogonalLoop=1;jettySize=auto;html=1;fontSize=12;startSize=8;endSize=8;strokeWidth=2;endArrow=none;endFill=0;" parent="1" source="WbsWjwDJcjXZ_kDhLRrN-56" target="WbsWjwDJcjXZ_kDhLRrN-62" edge="1">
          <mxGeometry relative="1" as="geometry" />
        </mxCell>
        <mxCell id="WbsWjwDJcjXZ_kDhLRrN-56" value="Driver" style="rounded=0;whiteSpace=wrap;html=1;fontSize=16;" parent="1" vertex="1">
          <mxGeometry x="847" y="663" width="120" height="60" as="geometry" />
        </mxCell>
        <mxCell id="WbsWjwDJcjXZ_kDhLRrN-70" style="edgeStyle=none;curved=1;rounded=0;orthogonalLoop=1;jettySize=auto;html=1;fontSize=12;startSize=8;endSize=8;strokeWidth=2;endArrow=none;endFill=0;" parent="1" source="WbsWjwDJcjXZ_kDhLRrN-57" target="WbsWjwDJcjXZ_kDhLRrN-56" edge="1">
          <mxGeometry relative="1" as="geometry" />
        </mxCell>
        <mxCell id="Es3dOmBLuo4MZG2HMhpd-24" style="edgeStyle=orthogonalEdgeStyle;rounded=0;orthogonalLoop=1;jettySize=auto;html=1;strokeWidth=2;endArrow=none;endFill=0;" edge="1" parent="1" source="WbsWjwDJcjXZ_kDhLRrN-57" target="Es3dOmBLuo4MZG2HMhpd-23">
          <mxGeometry relative="1" as="geometry" />
        </mxCell>
        <mxCell id="WbsWjwDJcjXZ_kDhLRrN-57" value="mengantar" style="rhombus;whiteSpace=wrap;html=1;fontSize=16;" parent="1" vertex="1">
          <mxGeometry x="830.5" y="451" width="153" height="80" as="geometry" />
        </mxCell>
        <mxCell id="WbsWjwDJcjXZ_kDhLRrN-58" value="&lt;u&gt;id_driver&lt;/u&gt;" style="ellipse;whiteSpace=wrap;html=1;fontSize=16;" parent="1" vertex="1">
          <mxGeometry x="665" y="702" width="144" height="83" as="geometry" />
        </mxCell>
        <mxCell id="WbsWjwDJcjXZ_kDhLRrN-59" value="Nama_driver" style="ellipse;whiteSpace=wrap;html=1;fontSize=16;" parent="1" vertex="1">
          <mxGeometry x="669" y="826" width="144" height="83" as="geometry" />
        </mxCell>
        <mxCell id="WbsWjwDJcjXZ_kDhLRrN-60" value="No telepon" style="ellipse;whiteSpace=wrap;html=1;fontSize=16;" parent="1" vertex="1">
          <mxGeometry x="835" y="885" width="144" height="83" as="geometry" />
        </mxCell>
        <mxCell id="WbsWjwDJcjXZ_kDhLRrN-61" value="plat nomer" style="ellipse;whiteSpace=wrap;html=1;fontSize=16;" parent="1" vertex="1">
          <mxGeometry x="987" y="826" width="144" height="83" as="geometry" />
        </mxCell>
        <mxCell id="WbsWjwDJcjXZ_kDhLRrN-62" value="Avaibility" style="ellipse;whiteSpace=wrap;html=1;fontSize=16;" parent="1" vertex="1">
          <mxGeometry x="1000" y="705" width="144" height="83" as="geometry" />
        </mxCell>
        <mxCell id="WbsWjwDJcjXZ_kDhLRrN-75" style="edgeStyle=none;curved=1;rounded=0;orthogonalLoop=1;jettySize=auto;html=1;fontSize=12;startSize=8;endSize=8;strokeWidth=2;endArrow=none;endFill=0;" parent="1" source="WbsWjwDJcjXZ_kDhLRrN-72" target="WbsWjwDJcjXZ_kDhLRrN-57" edge="1">
          <mxGeometry relative="1" as="geometry" />
        </mxCell>
        <mxCell id="WbsWjwDJcjXZ_kDhLRrN-72" value="&lt;font style=&quot;font-size: 13px;&quot;&gt;&lt;u&gt;id_pengiriman&lt;/u&gt;&lt;/font&gt;" style="ellipse;whiteSpace=wrap;html=1;fontSize=16;" parent="1" vertex="1">
          <mxGeometry x="1011" y="403" width="114" height="57" as="geometry" />
        </mxCell>
        <mxCell id="WbsWjwDJcjXZ_kDhLRrN-76" style="edgeStyle=none;curved=1;rounded=0;orthogonalLoop=1;jettySize=auto;html=1;entryX=1;entryY=1;entryDx=0;entryDy=0;fontSize=12;startSize=8;endSize=8;strokeWidth=2;endArrow=none;endFill=0;" parent="1" source="WbsWjwDJcjXZ_kDhLRrN-73" target="WbsWjwDJcjXZ_kDhLRrN-57" edge="1">
          <mxGeometry relative="1" as="geometry" />
        </mxCell>
        <mxCell id="WbsWjwDJcjXZ_kDhLRrN-73" value="&lt;font style=&quot;font-size: 13px;&quot;&gt;alamat tujuan&lt;/font&gt;" style="ellipse;whiteSpace=wrap;html=1;fontSize=16;" parent="1" vertex="1">
          <mxGeometry x="1011" y="525" width="114" height="57" as="geometry" />
        </mxCell>
        <mxCell id="Es3dOmBLuo4MZG2HMhpd-17" value="1" style="text;html=1;align=center;verticalAlign=middle;resizable=0;points=[];autosize=1;strokeColor=none;fillColor=none;" vertex="1" parent="1">
          <mxGeometry x="168" y="266" width="25" height="26" as="geometry" />
        </mxCell>
        <mxCell id="Es3dOmBLuo4MZG2HMhpd-18" value="N" style="text;html=1;align=center;verticalAlign=middle;resizable=0;points=[];autosize=1;strokeColor=none;fillColor=none;" vertex="1" parent="1">
          <mxGeometry x="824" y="266" width="27" height="26" as="geometry" />
        </mxCell>
        <mxCell id="Es3dOmBLuo4MZG2HMhpd-19" value="N" style="text;html=1;align=center;verticalAlign=middle;resizable=0;points=[];autosize=1;strokeColor=none;fillColor=none;" vertex="1" parent="1">
          <mxGeometry x="967" y="266" width="27" height="26" as="geometry" />
        </mxCell>
        <mxCell id="Es3dOmBLuo4MZG2HMhpd-20" value="1" style="text;html=1;align=center;verticalAlign=middle;resizable=0;points=[];autosize=1;strokeColor=none;fillColor=none;" vertex="1" parent="1">
          <mxGeometry x="1485" y="267" width="25" height="26" as="geometry" />
        </mxCell>
        <mxCell id="Es3dOmBLuo4MZG2HMhpd-21" value="1" style="text;html=1;align=center;verticalAlign=middle;resizable=0;points=[];autosize=1;strokeColor=none;fillColor=none;" vertex="1" parent="1">
          <mxGeometry x="882" y="640" width="25" height="26" as="geometry" />
        </mxCell>
        <mxCell id="Es3dOmBLuo4MZG2HMhpd-22" value="N" style="text;html=1;align=center;verticalAlign=middle;resizable=0;points=[];autosize=1;strokeColor=none;fillColor=none;" vertex="1" parent="1">
          <mxGeometry x="879" y="314" width="27" height="26" as="geometry" />
        </mxCell>
        <mxCell id="Es3dOmBLuo4MZG2HMhpd-23" value="&lt;font style=&quot;font-size: 13px;&quot;&gt;tanggal pemesanan&lt;/font&gt;" style="ellipse;whiteSpace=wrap;html=1;fontSize=16;" vertex="1" parent="1">
          <mxGeometry x="1136" y="462.5" width="114" height="57" as="geometry" />
        </mxCell>
        <mxCell id="Es3dOmBLuo4MZG2HMhpd-39" value="Pembeli" style="swimlane;fontStyle=0;childLayout=stackLayout;horizontal=1;startSize=26;horizontalStack=0;resizeParent=1;resizeParentMax=0;resizeLast=0;collapsible=1;marginBottom=0;align=center;fontSize=14;shadow=0;" vertex="1" parent="1">
          <mxGeometry x="1983" y="121" width="198" height="146" as="geometry" />
        </mxCell>
        <mxCell id="Es3dOmBLuo4MZG2HMhpd-40" value="id_pembeli" style="text;strokeColor=none;fillColor=none;spacingLeft=4;spacingRight=4;overflow=hidden;rotatable=0;points=[[0,0.5],[1,0.5]];portConstraint=eastwest;fontSize=12;whiteSpace=wrap;html=1;" vertex="1" parent="Es3dOmBLuo4MZG2HMhpd-39">
          <mxGeometry y="26" width="198" height="30" as="geometry" />
        </mxCell>
        <mxCell id="Es3dOmBLuo4MZG2HMhpd-41" value="nama_pembeli" style="text;strokeColor=none;fillColor=none;spacingLeft=4;spacingRight=4;overflow=hidden;rotatable=0;points=[[0,0.5],[1,0.5]];portConstraint=eastwest;fontSize=12;whiteSpace=wrap;html=1;" vertex="1" parent="Es3dOmBLuo4MZG2HMhpd-39">
          <mxGeometry y="56" width="198" height="30" as="geometry" />
        </mxCell>
        <mxCell id="Es3dOmBLuo4MZG2HMhpd-42" value="email" style="text;strokeColor=none;fillColor=none;spacingLeft=4;spacingRight=4;overflow=hidden;rotatable=0;points=[[0,0.5],[1,0.5]];portConstraint=eastwest;fontSize=12;whiteSpace=wrap;html=1;" vertex="1" parent="Es3dOmBLuo4MZG2HMhpd-39">
          <mxGeometry y="86" width="198" height="30" as="geometry" />
        </mxCell>
        <mxCell id="Es3dOmBLuo4MZG2HMhpd-58" value="Nomor Telepon" style="text;strokeColor=none;fillColor=none;spacingLeft=4;spacingRight=4;overflow=hidden;rotatable=0;points=[[0,0.5],[1,0.5]];portConstraint=eastwest;fontSize=12;whiteSpace=wrap;html=1;" vertex="1" parent="Es3dOmBLuo4MZG2HMhpd-39">
          <mxGeometry y="116" width="198" height="30" as="geometry" />
        </mxCell>
        <mxCell id="Es3dOmBLuo4MZG2HMhpd-59" value="Pesanan" style="swimlane;fontStyle=0;childLayout=stackLayout;horizontal=1;startSize=26;horizontalStack=0;resizeParent=1;resizeParentMax=0;resizeLast=0;collapsible=1;marginBottom=0;align=center;fontSize=14;shadow=0;" vertex="1" parent="1">
          <mxGeometry x="2291" y="121" width="198" height="176" as="geometry" />
        </mxCell>
        <mxCell id="Es3dOmBLuo4MZG2HMhpd-60" value="id_pemesanan" style="text;strokeColor=none;fillColor=none;spacingLeft=4;spacingRight=4;overflow=hidden;rotatable=0;points=[[0,0.5],[1,0.5]];portConstraint=eastwest;fontSize=12;whiteSpace=wrap;html=1;" vertex="1" parent="Es3dOmBLuo4MZG2HMhpd-59">
          <mxGeometry y="26" width="198" height="30" as="geometry" />
        </mxCell>
        <mxCell id="Es3dOmBLuo4MZG2HMhpd-61" value="id_pembeli" style="text;strokeColor=none;fillColor=none;spacingLeft=4;spacingRight=4;overflow=hidden;rotatable=0;points=[[0,0.5],[1,0.5]];portConstraint=eastwest;fontSize=12;whiteSpace=wrap;html=1;" vertex="1" parent="Es3dOmBLuo4MZG2HMhpd-59">
          <mxGeometry y="56" width="198" height="30" as="geometry" />
        </mxCell>
        <mxCell id="Es3dOmBLuo4MZG2HMhpd-62" value="id_makanan" style="text;strokeColor=none;fillColor=none;spacingLeft=4;spacingRight=4;overflow=hidden;rotatable=0;points=[[0,0.5],[1,0.5]];portConstraint=eastwest;fontSize=12;whiteSpace=wrap;html=1;" vertex="1" parent="Es3dOmBLuo4MZG2HMhpd-59">
          <mxGeometry y="86" width="198" height="30" as="geometry" />
        </mxCell>
        <mxCell id="Es3dOmBLuo4MZG2HMhpd-63" value="Detail_pemesanan" style="text;strokeColor=none;fillColor=none;spacingLeft=4;spacingRight=4;overflow=hidden;rotatable=0;points=[[0,0.5],[1,0.5]];portConstraint=eastwest;fontSize=12;whiteSpace=wrap;html=1;" vertex="1" parent="Es3dOmBLuo4MZG2HMhpd-59">
          <mxGeometry y="116" width="198" height="30" as="geometry" />
        </mxCell>
        <mxCell id="Es3dOmBLuo4MZG2HMhpd-78" value="Note_pemesanan" style="text;strokeColor=none;fillColor=none;spacingLeft=4;spacingRight=4;overflow=hidden;rotatable=0;points=[[0,0.5],[1,0.5]];portConstraint=eastwest;fontSize=12;whiteSpace=wrap;html=1;" vertex="1" parent="Es3dOmBLuo4MZG2HMhpd-59">
          <mxGeometry y="146" width="198" height="30" as="geometry" />
        </mxCell>
        <mxCell id="Es3dOmBLuo4MZG2HMhpd-65" value="Makanan" style="swimlane;fontStyle=0;childLayout=stackLayout;horizontal=1;startSize=26;horizontalStack=0;resizeParent=1;resizeParentMax=0;resizeLast=0;collapsible=1;marginBottom=0;align=center;fontSize=14;shadow=0;" vertex="1" parent="1">
          <mxGeometry x="2608" y="128" width="198" height="176" as="geometry" />
        </mxCell>
        <mxCell id="Es3dOmBLuo4MZG2HMhpd-66" value="&lt;span style=&quot;background-color: initial;&quot;&gt;id_makanan&lt;/span&gt;" style="text;strokeColor=none;fillColor=none;spacingLeft=4;spacingRight=4;overflow=hidden;rotatable=0;points=[[0,0.5],[1,0.5]];portConstraint=eastwest;fontSize=12;whiteSpace=wrap;html=1;" vertex="1" parent="Es3dOmBLuo4MZG2HMhpd-65">
          <mxGeometry y="26" width="198" height="30" as="geometry" />
        </mxCell>
        <mxCell id="Es3dOmBLuo4MZG2HMhpd-92" value="id_resto" style="text;strokeColor=none;fillColor=none;spacingLeft=4;spacingRight=4;overflow=hidden;rotatable=0;points=[[0,0.5],[1,0.5]];portConstraint=eastwest;fontSize=12;whiteSpace=wrap;html=1;" vertex="1" parent="Es3dOmBLuo4MZG2HMhpd-65">
          <mxGeometry y="56" width="198" height="30" as="geometry" />
        </mxCell>
        <mxCell id="Es3dOmBLuo4MZG2HMhpd-67" value="nama_makanan" style="text;strokeColor=none;fillColor=none;spacingLeft=4;spacingRight=4;overflow=hidden;rotatable=0;points=[[0,0.5],[1,0.5]];portConstraint=eastwest;fontSize=12;whiteSpace=wrap;html=1;" vertex="1" parent="Es3dOmBLuo4MZG2HMhpd-65">
          <mxGeometry y="86" width="198" height="30" as="geometry" />
        </mxCell>
        <mxCell id="Es3dOmBLuo4MZG2HMhpd-68" value="Keterangan_makanan" style="text;strokeColor=none;fillColor=none;spacingLeft=4;spacingRight=4;overflow=hidden;rotatable=0;points=[[0,0.5],[1,0.5]];portConstraint=eastwest;fontSize=12;whiteSpace=wrap;html=1;" vertex="1" parent="Es3dOmBLuo4MZG2HMhpd-65">
          <mxGeometry y="116" width="198" height="30" as="geometry" />
        </mxCell>
        <mxCell id="Es3dOmBLuo4MZG2HMhpd-69" value="Status" style="text;strokeColor=none;fillColor=none;spacingLeft=4;spacingRight=4;overflow=hidden;rotatable=0;points=[[0,0.5],[1,0.5]];portConstraint=eastwest;fontSize=12;whiteSpace=wrap;html=1;" vertex="1" parent="Es3dOmBLuo4MZG2HMhpd-65">
          <mxGeometry y="146" width="198" height="30" as="geometry" />
        </mxCell>
        <mxCell id="Es3dOmBLuo4MZG2HMhpd-72" value="Detail_pemesanan" style="swimlane;fontStyle=0;childLayout=stackLayout;horizontal=1;startSize=26;horizontalStack=0;resizeParent=1;resizeParentMax=0;resizeLast=0;collapsible=1;marginBottom=0;align=center;fontSize=14;shadow=0;" vertex="1" parent="1">
          <mxGeometry x="2291" y="-57" width="198" height="86" as="geometry" />
        </mxCell>
        <mxCell id="Es3dOmBLuo4MZG2HMhpd-73" value="id_pemesanan" style="text;strokeColor=none;fillColor=none;spacingLeft=4;spacingRight=4;overflow=hidden;rotatable=0;points=[[0,0.5],[1,0.5]];portConstraint=eastwest;fontSize=12;whiteSpace=wrap;html=1;" vertex="1" parent="Es3dOmBLuo4MZG2HMhpd-72">
          <mxGeometry y="26" width="198" height="30" as="geometry" />
        </mxCell>
        <mxCell id="Es3dOmBLuo4MZG2HMhpd-75" value="jumlah_pemesanan" style="text;strokeColor=none;fillColor=none;spacingLeft=4;spacingRight=4;overflow=hidden;rotatable=0;points=[[0,0.5],[1,0.5]];portConstraint=eastwest;fontSize=12;whiteSpace=wrap;html=1;" vertex="1" parent="Es3dOmBLuo4MZG2HMhpd-72">
          <mxGeometry y="56" width="198" height="30" as="geometry" />
        </mxCell>
        <mxCell id="Es3dOmBLuo4MZG2HMhpd-79" value="Keterangan_makanan" style="swimlane;fontStyle=0;childLayout=stackLayout;horizontal=1;startSize=26;horizontalStack=0;resizeParent=1;resizeParentMax=0;resizeLast=0;collapsible=1;marginBottom=0;align=center;fontSize=14;shadow=0;" vertex="1" parent="1">
          <mxGeometry x="2608" y="-76" width="198" height="116" as="geometry" />
        </mxCell>
        <mxCell id="Es3dOmBLuo4MZG2HMhpd-80" value="id_makanan" style="text;strokeColor=none;fillColor=none;spacingLeft=4;spacingRight=4;overflow=hidden;rotatable=0;points=[[0,0.5],[1,0.5]];portConstraint=eastwest;fontSize=12;whiteSpace=wrap;html=1;" vertex="1" parent="Es3dOmBLuo4MZG2HMhpd-79">
          <mxGeometry y="26" width="198" height="30" as="geometry" />
        </mxCell>
        <mxCell id="Es3dOmBLuo4MZG2HMhpd-81" value="deskripsi_teks" style="text;strokeColor=none;fillColor=none;spacingLeft=4;spacingRight=4;overflow=hidden;rotatable=0;points=[[0,0.5],[1,0.5]];portConstraint=eastwest;fontSize=12;whiteSpace=wrap;html=1;" vertex="1" parent="Es3dOmBLuo4MZG2HMhpd-79">
          <mxGeometry y="56" width="198" height="30" as="geometry" />
        </mxCell>
        <mxCell id="Es3dOmBLuo4MZG2HMhpd-82" value="gambar" style="text;strokeColor=none;fillColor=none;spacingLeft=4;spacingRight=4;overflow=hidden;rotatable=0;points=[[0,0.5],[1,0.5]];portConstraint=eastwest;fontSize=12;whiteSpace=wrap;html=1;" vertex="1" parent="Es3dOmBLuo4MZG2HMhpd-79">
          <mxGeometry y="86" width="198" height="30" as="geometry" />
        </mxCell>
        <mxCell id="Es3dOmBLuo4MZG2HMhpd-84" value="Resto" style="swimlane;fontStyle=0;childLayout=stackLayout;horizontal=1;startSize=26;horizontalStack=0;resizeParent=1;resizeParentMax=0;resizeLast=0;collapsible=1;marginBottom=0;align=center;fontSize=14;shadow=0;" vertex="1" parent="1">
          <mxGeometry x="2956" y="132.5" width="198" height="146" as="geometry" />
        </mxCell>
        <mxCell id="Es3dOmBLuo4MZG2HMhpd-85" value="id_Resto" style="text;strokeColor=none;fillColor=none;spacingLeft=4;spacingRight=4;overflow=hidden;rotatable=0;points=[[0,0.5],[1,0.5]];portConstraint=eastwest;fontSize=12;whiteSpace=wrap;html=1;" vertex="1" parent="Es3dOmBLuo4MZG2HMhpd-84">
          <mxGeometry y="26" width="198" height="30" as="geometry" />
        </mxCell>
        <mxCell id="Es3dOmBLuo4MZG2HMhpd-87" value="Alamat" style="text;strokeColor=none;fillColor=none;spacingLeft=4;spacingRight=4;overflow=hidden;rotatable=0;points=[[0,0.5],[1,0.5]];portConstraint=eastwest;fontSize=12;whiteSpace=wrap;html=1;" vertex="1" parent="Es3dOmBLuo4MZG2HMhpd-84">
          <mxGeometry y="56" width="198" height="30" as="geometry" />
        </mxCell>
        <mxCell id="Es3dOmBLuo4MZG2HMhpd-88" value="no_telpon" style="text;strokeColor=none;fillColor=none;spacingLeft=4;spacingRight=4;overflow=hidden;rotatable=0;points=[[0,0.5],[1,0.5]];portConstraint=eastwest;fontSize=12;whiteSpace=wrap;html=1;" vertex="1" parent="Es3dOmBLuo4MZG2HMhpd-84">
          <mxGeometry y="86" width="198" height="30" as="geometry" />
        </mxCell>
        <mxCell id="Es3dOmBLuo4MZG2HMhpd-89" value="Rating resto" style="text;strokeColor=none;fillColor=none;spacingLeft=4;spacingRight=4;overflow=hidden;rotatable=0;points=[[0,0.5],[1,0.5]];portConstraint=eastwest;fontSize=12;whiteSpace=wrap;html=1;" vertex="1" parent="Es3dOmBLuo4MZG2HMhpd-84">
          <mxGeometry y="116" width="198" height="30" as="geometry" />
        </mxCell>
        <mxCell id="Es3dOmBLuo4MZG2HMhpd-93" value="pengantaran_makanan" style="swimlane;fontStyle=0;childLayout=stackLayout;horizontal=1;startSize=26;horizontalStack=0;resizeParent=1;resizeParentMax=0;resizeLast=0;collapsible=1;marginBottom=0;align=center;fontSize=14;shadow=0;" vertex="1" parent="1">
          <mxGeometry x="2608" y="382" width="198" height="146" as="geometry" />
        </mxCell>
        <mxCell id="Es3dOmBLuo4MZG2HMhpd-105" value="id_pengiriman" style="text;strokeColor=none;fillColor=none;spacingLeft=4;spacingRight=4;overflow=hidden;rotatable=0;points=[[0,0.5],[1,0.5]];portConstraint=eastwest;fontSize=12;whiteSpace=wrap;html=1;" vertex="1" parent="Es3dOmBLuo4MZG2HMhpd-93">
          <mxGeometry y="26" width="198" height="30" as="geometry" />
        </mxCell>
        <mxCell id="Es3dOmBLuo4MZG2HMhpd-94" value="&lt;span style=&quot;background-color: initial;&quot;&gt;id_makanan&lt;/span&gt;" style="text;strokeColor=none;fillColor=none;spacingLeft=4;spacingRight=4;overflow=hidden;rotatable=0;points=[[0,0.5],[1,0.5]];portConstraint=eastwest;fontSize=12;whiteSpace=wrap;html=1;" vertex="1" parent="Es3dOmBLuo4MZG2HMhpd-93">
          <mxGeometry y="56" width="198" height="30" as="geometry" />
        </mxCell>
        <mxCell id="Es3dOmBLuo4MZG2HMhpd-95" value="id_driver" style="text;strokeColor=none;fillColor=none;spacingLeft=4;spacingRight=4;overflow=hidden;rotatable=0;points=[[0,0.5],[1,0.5]];portConstraint=eastwest;fontSize=12;whiteSpace=wrap;html=1;" vertex="1" parent="Es3dOmBLuo4MZG2HMhpd-93">
          <mxGeometry y="86" width="198" height="30" as="geometry" />
        </mxCell>
        <mxCell id="Es3dOmBLuo4MZG2HMhpd-96" value="detail_pengantaran" style="text;strokeColor=none;fillColor=none;spacingLeft=4;spacingRight=4;overflow=hidden;rotatable=0;points=[[0,0.5],[1,0.5]];portConstraint=eastwest;fontSize=12;whiteSpace=wrap;html=1;" vertex="1" parent="Es3dOmBLuo4MZG2HMhpd-93">
          <mxGeometry y="116" width="198" height="30" as="geometry" />
        </mxCell>
        <mxCell id="Es3dOmBLuo4MZG2HMhpd-99" value="detail_pengantaran" style="swimlane;fontStyle=0;childLayout=stackLayout;horizontal=1;startSize=26;horizontalStack=0;resizeParent=1;resizeParentMax=0;resizeLast=0;collapsible=1;marginBottom=0;align=center;fontSize=14;shadow=0;" vertex="1" parent="1">
          <mxGeometry x="2608" y="606" width="198" height="146" as="geometry" />
        </mxCell>
        <mxCell id="Es3dOmBLuo4MZG2HMhpd-100" value="&lt;span style=&quot;background-color: initial;&quot;&gt;id_pengiriman&lt;/span&gt;" style="text;strokeColor=none;fillColor=none;spacingLeft=4;spacingRight=4;overflow=hidden;rotatable=0;points=[[0,0.5],[1,0.5]];portConstraint=eastwest;fontSize=12;whiteSpace=wrap;html=1;" vertex="1" parent="Es3dOmBLuo4MZG2HMhpd-99">
          <mxGeometry y="26" width="198" height="30" as="geometry" />
        </mxCell>
        <mxCell id="Es3dOmBLuo4MZG2HMhpd-101" value="tanggal_pemesanan" style="text;strokeColor=none;fillColor=none;spacingLeft=4;spacingRight=4;overflow=hidden;rotatable=0;points=[[0,0.5],[1,0.5]];portConstraint=eastwest;fontSize=12;whiteSpace=wrap;html=1;" vertex="1" parent="Es3dOmBLuo4MZG2HMhpd-99">
          <mxGeometry y="56" width="198" height="30" as="geometry" />
        </mxCell>
        <mxCell id="Es3dOmBLuo4MZG2HMhpd-102" value="waktu_pemesanan" style="text;strokeColor=none;fillColor=none;spacingLeft=4;spacingRight=4;overflow=hidden;rotatable=0;points=[[0,0.5],[1,0.5]];portConstraint=eastwest;fontSize=12;whiteSpace=wrap;html=1;" vertex="1" parent="Es3dOmBLuo4MZG2HMhpd-99">
          <mxGeometry y="86" width="198" height="30" as="geometry" />
        </mxCell>
        <mxCell id="Es3dOmBLuo4MZG2HMhpd-106" value="alamat_tujuan" style="text;strokeColor=none;fillColor=none;spacingLeft=4;spacingRight=4;overflow=hidden;rotatable=0;points=[[0,0.5],[1,0.5]];portConstraint=eastwest;fontSize=12;whiteSpace=wrap;html=1;" vertex="1" parent="Es3dOmBLuo4MZG2HMhpd-99">
          <mxGeometry y="116" width="198" height="30" as="geometry" />
        </mxCell>
        <mxCell id="Es3dOmBLuo4MZG2HMhpd-107" value="Driver" style="swimlane;fontStyle=0;childLayout=stackLayout;horizontal=1;startSize=26;horizontalStack=0;resizeParent=1;resizeParentMax=0;resizeLast=0;collapsible=1;marginBottom=0;align=center;fontSize=14;shadow=0;" vertex="1" parent="1">
          <mxGeometry x="2291" y="379" width="198" height="176" as="geometry" />
        </mxCell>
        <mxCell id="Es3dOmBLuo4MZG2HMhpd-108" value="id_driver" style="text;strokeColor=none;fillColor=none;spacingLeft=4;spacingRight=4;overflow=hidden;rotatable=0;points=[[0,0.5],[1,0.5]];portConstraint=eastwest;fontSize=12;whiteSpace=wrap;html=1;" vertex="1" parent="Es3dOmBLuo4MZG2HMhpd-107">
          <mxGeometry y="26" width="198" height="30" as="geometry" />
        </mxCell>
        <mxCell id="Es3dOmBLuo4MZG2HMhpd-109" value="&lt;span style=&quot;background-color: initial;&quot;&gt;nama_driver&lt;/span&gt;" style="text;strokeColor=none;fillColor=none;spacingLeft=4;spacingRight=4;overflow=hidden;rotatable=0;points=[[0,0.5],[1,0.5]];portConstraint=eastwest;fontSize=12;whiteSpace=wrap;html=1;" vertex="1" parent="Es3dOmBLuo4MZG2HMhpd-107">
          <mxGeometry y="56" width="198" height="30" as="geometry" />
        </mxCell>
        <mxCell id="Es3dOmBLuo4MZG2HMhpd-110" value="plat_nomor" style="text;strokeColor=none;fillColor=none;spacingLeft=4;spacingRight=4;overflow=hidden;rotatable=0;points=[[0,0.5],[1,0.5]];portConstraint=eastwest;fontSize=12;whiteSpace=wrap;html=1;" vertex="1" parent="Es3dOmBLuo4MZG2HMhpd-107">
          <mxGeometry y="86" width="198" height="30" as="geometry" />
        </mxCell>
        <mxCell id="Es3dOmBLuo4MZG2HMhpd-111" value="avaibility" style="text;strokeColor=none;fillColor=none;spacingLeft=4;spacingRight=4;overflow=hidden;rotatable=0;points=[[0,0.5],[1,0.5]];portConstraint=eastwest;fontSize=12;whiteSpace=wrap;html=1;" vertex="1" parent="Es3dOmBLuo4MZG2HMhpd-107">
          <mxGeometry y="116" width="198" height="30" as="geometry" />
        </mxCell>
        <mxCell id="Es3dOmBLuo4MZG2HMhpd-112" value="no_telepon" style="text;strokeColor=none;fillColor=none;spacingLeft=4;spacingRight=4;overflow=hidden;rotatable=0;points=[[0,0.5],[1,0.5]];portConstraint=eastwest;fontSize=12;whiteSpace=wrap;html=1;" vertex="1" parent="Es3dOmBLuo4MZG2HMhpd-107">
          <mxGeometry y="146" width="198" height="30" as="geometry" />
        </mxCell>
      </root>
    </mxGraphModel>
  </diagram>
</mxfile>
